<svg width="38" height="38" viewBox="0 0 38 38" fill="none" xmlns="http://www.w3.org/2000/svg">
<circle cx="19" cy="19" r="18.5" stroke="white"/>
<path d="M15.25 27.75C15.9404 27.75 16.5 27.1904 16.5 26.5C16.5 25.8096 15.9404 25.25 15.25 25.25C14.5596 25.25 14 25.8096 14 26.5C14 27.1904 14.5596 27.75 15.25 27.75Z" fill="white"/>
<path d="M24 27.75C24.6904 27.75 25.25 27.1904 25.25 26.5C25.25 25.8096 24.6904 25.25 24 25.25C23.3096 25.25 22.75 25.8096 22.75 26.5C22.75 27.1904 23.3096 27.75 24 27.75Z" fill="white"/>
<path d="M26.5 13.3749H12.6375L12.125 10.7499C12.0958 10.6066 12.0172 10.4781 11.903 10.3867C11.7888 10.2954 11.6462 10.2469 11.5 10.2499H9V11.4999H10.9875L13.375 23.4999C13.4042 23.6432 13.4828 23.7717 13.597 23.8631C13.7112 23.9544 13.8538 24.0028 14 23.9999H24.625C24.9702 23.9999 25.25 23.7201 25.25 23.3749C25.25 23.0297 24.9702 22.7499 24.625 22.7499H14.5125L14 20.2499H25.25C25.3945 20.2534 25.5357 20.2068 25.6497 20.1179C25.7636 20.029 25.8432 19.9034 25.875 19.7624L27.125 14.1374C27.1459 14.0446 27.1455 13.9484 27.1236 13.8558C27.1017 13.7633 27.059 13.677 26.9987 13.6035C26.9385 13.53 26.8622 13.4712 26.7758 13.4315C26.6894 13.3919 26.595 13.3725 26.5 13.3749ZM24.75 18.9999H13.7625L12.8875 14.6249H25.7188L24.75 18.9999Z" fill="white"/>
</svg>
