<svg width="38" height="38" viewBox="0 0 38 38" fill="none" xmlns="http://www.w3.org/2000/svg">
<circle cx="19" cy="19" r="18.5" stroke="white"/>
<path d="M26.9842 25.6825L23.8675 22.575C24.8731 21.2939 25.4187 19.7119 25.4167 18.0833C25.4167 16.6329 24.9866 15.2151 24.1808 14.0092C23.375 12.8032 22.2297 11.8633 20.8897 11.3082C19.5497 10.7532 18.0752 10.608 16.6527 10.8909C15.2301 11.1739 13.9235 11.8723 12.8979 12.8979C11.8723 13.9235 11.1739 15.2301 10.8909 16.6527C10.608 18.0752 10.7532 19.5497 11.3082 20.8897C11.8633 22.2297 12.8032 23.375 14.0092 24.1808C15.2151 24.9866 16.6329 25.4167 18.0833 25.4167C19.7119 25.4187 21.2939 24.8731 22.575 23.8675L25.6825 26.9842C25.7677 27.0701 25.8691 27.1383 25.9808 27.1848C26.0925 27.2314 26.2123 27.2553 26.3333 27.2553C26.4543 27.2553 26.5742 27.2314 26.6859 27.1848C26.7976 27.1383 26.899 27.0701 26.9842 26.9842C27.0701 26.899 27.1383 26.7976 27.1848 26.6859C27.2314 26.5742 27.2553 26.4543 27.2553 26.3333C27.2553 26.2123 27.2314 26.0925 27.1848 25.9808C27.1383 25.8691 27.0701 25.7677 26.9842 25.6825ZM12.5833 18.0833C12.5833 16.9955 12.9059 15.9322 13.5103 15.0277C14.1146 14.1232 14.9736 13.4183 15.9786 13.002C16.9836 12.5857 18.0894 12.4768 19.1563 12.689C20.2232 12.9012 21.2032 13.4251 21.9724 14.1942C22.7416 14.9634 23.2654 15.9434 23.4777 17.0103C23.6899 18.0772 23.581 19.1831 23.1647 20.1881C22.7484 21.1931 22.0434 22.0521 21.139 22.6564C20.2345 23.2608 19.1711 23.5833 18.0833 23.5833C16.6246 23.5833 15.2257 23.0039 14.1942 21.9724C13.1628 20.941 12.5833 19.542 12.5833 18.0833Z" fill="white"/>
</svg>
