<svg width="38" height="38" viewBox="0 0 38 38" fill="none" xmlns="http://www.w3.org/2000/svg">
<circle cx="19" cy="19" r="18.5" stroke="white"/>
<path d="M26.3723 24.8734C25.9709 23.9191 25.3885 23.0523 24.6574 22.3212C23.9285 21.5881 23.0651 21.0035 22.1149 20.5999C22.1064 20.5956 22.0979 20.5935 22.0893 20.5892C23.4149 19.6281 24.2766 18.0627 24.2766 16.2965C24.2766 13.3706 21.9149 11 19 11C16.0851 11 13.7234 13.3706 13.7234 16.2965C13.7234 18.0627 14.5851 19.6281 15.9107 20.5913C15.9021 20.5956 15.8936 20.5977 15.8851 20.602C14.9319 21.0057 14.0766 21.5844 13.3426 22.3234C12.6122 23.055 12.0298 23.9216 11.6277 24.8755C11.2327 25.8093 11.0196 26.8105 11.0001 27.8249C10.9995 27.8477 11.0035 27.8703 11.0118 27.8916C11.0201 27.9128 11.0325 27.9321 11.0484 27.9485C11.0642 27.9648 11.0832 27.9777 11.1041 27.9866C11.1251 27.9955 11.1475 28 11.1703 28H12.4469C12.5405 28 12.6149 27.9253 12.6171 27.8334C12.6596 26.1847 13.3192 24.6406 14.4851 23.4702C15.6915 22.2593 17.2936 21.593 19 21.593C20.7064 21.593 22.3085 22.2593 23.5149 23.4702C24.6808 24.6406 25.3404 26.1847 25.3829 27.8334C25.3851 27.9274 25.4595 28 25.5531 28H26.8297C26.8524 28 26.8749 27.9955 26.8959 27.9866C26.9168 27.9777 26.9358 27.9648 26.9516 27.9485C26.9675 27.9321 26.9799 27.9128 26.9882 27.8916C26.9965 27.8703 27.0005 27.8477 26.9999 27.8249C26.9787 26.804 26.768 25.8109 26.3723 24.8734ZM19 19.9698C18.0234 19.9698 17.1043 19.5876 16.4128 18.8935C15.7213 18.1994 15.3404 17.2768 15.3404 16.2965C15.3404 15.3162 15.7213 14.3936 16.4128 13.6995C17.1043 13.0054 18.0234 12.6231 19 12.6231C19.9766 12.6231 20.8957 13.0054 21.5872 13.6995C22.2787 14.3936 22.6595 15.3162 22.6595 16.2965C22.6595 17.2768 22.2787 18.1994 21.5872 18.8935C20.8957 19.5876 19.9766 19.9698 19 19.9698Z" fill="white"/>
</svg>
