<svg width="190" height="39" viewBox="0 0 190 39" fill="none" xmlns="http://www.w3.org/2000/svg">
<path fill-rule="evenodd" clip-rule="evenodd" d="M64.0787 9.37763H110.558V37.5711H64.0787V9.37763ZM85.9575 12.9579H105.527L90.4996 32.3457H106.657V34.3576H67.977L82.9543 14.9588H67.9798V12.9771H85.9575V12.9579ZM100.935 14.9369H86.0156L72.5274 32.3457H87.5047L100.935 14.9369ZM168.119 21.7143C168.067 22.0844 168.042 22.4576 168.044 22.8311C168.048 24.8142 168.645 26.7516 169.761 28.3982C170.876 30.0449 172.459 31.3267 174.31 32.0815C176.161 32.8364 178.197 33.0303 180.159 32.6388C182.121 32.2473 183.922 31.288 185.334 29.8822C185.671 29.5482 185.991 29.2006 186.298 28.8338L188.442 29.5838C187.98 30.24 187.446 30.844 186.851 31.3849C185.719 32.5369 184.367 33.4546 182.875 34.0849C181.382 34.7152 179.778 35.0456 178.155 35.0567C176.533 35.0679 174.924 34.7597 173.423 34.1499C171.921 33.5402 170.557 32.6411 169.41 31.5048C168.262 30.3686 167.353 29.0178 166.736 27.5308C166.12 26.0439 165.807 24.4504 165.817 22.8429C165.827 21.2353 166.16 19.6458 166.795 18.1664C167.43 16.6871 168.355 15.3475 169.517 14.2253C171.816 11.9483 174.933 10.6692 178.184 10.6692C181.434 10.6692 184.552 11.9483 186.851 14.2253C187.861 15.1964 188.66 16.3614 189.199 17.6491C189.739 18.9369 190.008 20.3201 189.989 21.7143H168.119ZM168.503 19.686H187.74C187.276 18.1967 186.45 16.8432 185.334 15.7444C184.393 14.8109 183.276 14.0702 182.046 13.5649C180.817 13.0595 179.498 12.7994 178.167 12.7994C176.836 12.7994 175.517 13.0595 174.288 13.5649C173.058 14.0702 171.941 14.8109 171 15.7444C169.875 16.8521 169.021 18.2005 168.503 19.686ZM146.953 17.4962V34.3576H144.936V12.6349H146.953V14.0391C148.767 12.238 150.885 11.3375 153.307 11.3375C155.897 11.3375 158.006 12.1404 159.634 13.7462C161.262 15.3521 162.091 17.3749 162.121 19.8147V34.3576H160.129V20.0145C160.143 19.1312 159.971 18.2546 159.622 17.4413C159.274 16.6281 158.757 15.8962 158.106 15.2928C156.835 14.0436 155.118 13.3404 153.328 13.3353C151.537 13.3302 149.817 14.0235 148.538 15.2654C147.873 15.9012 147.332 16.6528 146.942 17.4826L146.953 17.4962ZM128.378 12.7855C126.03 12.7747 123.751 13.5713 121.929 15.0394C120.107 16.5075 118.856 18.5562 118.389 20.8361C117.922 23.116 118.267 25.4859 119.366 27.5417C120.466 29.5975 122.251 31.2118 124.417 32.1094C126.583 33.007 128.997 33.1322 131.246 32.4637C133.495 31.7952 135.441 30.3744 136.751 28.4436C138.061 26.5128 138.654 24.1915 138.43 21.8757C138.205 19.5599 137.177 17.393 135.52 15.7444C134.597 14.7942 133.486 14.0415 132.258 13.5326C131.03 13.0237 129.709 12.7695 128.378 12.7855ZM128.378 10.6751C130.8 10.6772 133.167 11.3901 135.181 12.7239C137.195 14.0577 138.764 15.9526 139.692 18.1694C140.619 20.3862 140.863 22.8255 140.393 25.1795C139.922 27.5335 138.758 29.6966 137.048 31.3959C135.623 32.8065 133.87 33.8475 131.942 34.4265C130.015 35.0056 127.973 35.1049 125.998 34.7156C124.022 34.3264 122.174 33.4606 120.617 32.195C119.06 30.9293 117.842 29.3029 117.071 27.4595C116.3 25.6162 115.999 23.6129 116.196 21.6271C116.392 19.6412 117.08 17.734 118.198 16.0743C119.316 14.4146 120.83 13.0536 122.606 12.1118C124.381 11.1701 126.364 10.6766 128.378 10.6751ZM45.2168 12.7855C42.8658 12.7707 40.5825 13.5647 38.7566 15.0319C36.9306 16.4991 35.6752 18.5487 35.2046 20.8308C34.7339 23.1129 35.0772 25.486 36.1758 27.5453C37.2744 29.6046 39.0603 31.2223 41.2287 32.1224C43.3971 33.0225 45.8136 33.1492 48.0657 32.4809C50.3179 31.8126 52.2662 30.3906 53.5781 28.4578C54.89 26.5249 55.4842 24.2009 55.2593 21.8823C55.0344 19.5638 54.0043 17.3944 52.3449 15.7444C51.4203 14.7928 50.3084 14.0392 49.0781 13.5302C47.8477 13.0213 46.5251 12.7678 45.1919 12.7855H45.2168ZM45.2168 10.6751C47.6384 10.6785 50.0047 11.3922 52.0174 12.7262C54.0301 14.0602 55.599 15.9548 56.5263 18.1711C57.4536 20.3873 57.6978 22.826 57.228 25.1795C56.7582 27.5331 55.5955 29.6961 53.8866 31.3959C52.4621 32.8065 50.7085 33.8475 48.7811 34.4265C46.8537 35.0056 44.8119 35.1049 42.8365 34.7156C40.8611 34.3264 39.0131 33.4606 37.456 32.195C35.8989 30.9293 34.6808 29.3029 33.9095 27.4595C33.1382 25.6162 32.8376 23.6129 33.0342 21.6271C33.2309 19.6412 33.9187 17.734 35.0368 16.0743C36.1549 14.4146 37.6688 13.0536 39.4444 12.1118C41.2201 11.1701 43.2027 10.6766 45.2168 10.6751ZM28.3635 5.17051V34.3384H26.3411V5.17051H28.3635ZM20.1275 29.113L22.2438 29.8822C21.8492 30.4174 21.4112 30.92 20.9343 31.3849C19.7989 32.516 18.4491 33.4136 16.9624 34.0261C15.4757 34.6386 13.8815 34.9539 12.2714 34.9539C10.6613 34.9539 9.06707 34.6386 7.58038 34.0261C6.0937 33.4136 4.74388 32.516 3.60853 31.3849C1.89568 29.6887 0.72872 27.5275 0.255103 25.1745C-0.218515 22.8215 0.0224603 20.3821 0.947581 18.1647C1.8727 15.9473 3.44046 14.0514 5.45276 12.7163C7.46507 11.3813 9.83163 10.6672 12.2534 10.6641C13.8693 10.6359 15.4738 10.9373 16.9672 11.5494C18.4605 12.1616 19.8109 13.0714 20.9343 14.2225C21.4112 14.6844 21.8492 15.1843 22.2438 15.717L20.1275 16.4944C19.9148 16.2207 19.6772 15.9661 19.4202 15.6924C18.488 14.7498 17.3718 14.0053 16.1397 13.5041C14.9075 13.0029 13.5852 12.7556 12.2534 12.7773C10.5876 12.7758 8.94715 13.1818 7.47767 13.9591C6.00819 14.7365 4.75512 15.8612 3.82966 17.2335C2.9042 18.6058 2.33497 20.1832 2.17248 21.8257C2.00999 23.4683 2.25927 25.1251 2.89819 26.6493C3.53712 28.1735 4.54593 29.5178 5.8351 30.5631C7.12428 31.6083 8.65395 32.3221 10.2884 32.6411C11.9228 32.9601 13.6115 32.8744 15.2044 32.3917C16.7974 31.909 18.2455 31.0442 19.4202 29.874C19.667 29.6322 19.9012 29.3783 20.122 29.113H20.1275ZM77.4812 7.92964H97.1581C96.6191 6.82407 95.9035 5.81196 95.039 4.93238C94.0551 3.88193 92.8603 3.04703 91.5314 2.48134C90.2024 1.91566 88.7687 1.6317 87.3224 1.6477C84.3219 1.6477 81.747 2.76723 79.6058 4.93238C78.734 5.80847 78.0143 6.82118 77.4756 7.92964H77.4812ZM62.4431 7.92964H75.8041C76.4225 6.2782 77.4018 4.78265 78.6719 3.55008C80.9699 1.27667 84.0846 -0.000244141 87.332 -0.000244141C90.5795 -0.000244141 93.6942 1.27667 95.9921 3.55008C97.259 4.78311 98.2346 6.27876 98.8489 7.92964H112.204V39.0108H62.4292V7.92964H62.4431Z" fill="white"/>
</svg>
