<svg width="40" height="40" viewBox="0 0 40 40" fill="none" xmlns="http://www.w3.org/2000/svg">
<path opacity="0.1" fill-rule="evenodd" clip-rule="evenodd" d="M0 20C0 8.95431 8.9543 0 20 0C31.0457 0 40 8.95431 40 20C40 31.0457 31.0457 40 20 40C8.9543 40 0 31.0457 0 20Z" fill="white"/>
<path d="M21.7956 32V21.0703H25.3496L25.8779 16.7909H21.7956V14.0652C21.7956 12.8303 22.1273 11.9849 23.8355 11.9849H26V8.16959C24.9468 8.05249 23.8882 7.99595 22.8291 8.00023C19.6877 8.00023 17.5308 9.98987 17.5308 13.6424V16.7829H14V21.0623H17.5386V32H21.7956Z" fill="white"/>
</svg>
